<svg width="1440" height="513" viewBox="0 0 1440 513" fill="none" xmlns="http://www.w3.org/2000/svg">
<mask id="mask0_17_20" style="mask-type:alpha" maskUnits="userSpaceOnUse" x="0" y="0" width="1440" height="513">
<rect width="1440" height="513" fill="#D9D9D9"/>
</mask>
<g mask="url(#mask0_17_20)">
<path d="M3173.69 637.315C3055.58 581.226 2933.9 476.27 2813.87 429.79C2690.36 381.861 2559.27 377.856 2431.52 411.941C2341.85 435.85 2253.83 478.212 2164.02 499.845C1997.16 539.502 1828.69 506.936 1676.88 405.679L1592.27 1085.8L3424.01 1175.82L3500.51 660.548C3394.27 711.139 3278.43 687.074 3173.69 637.315Z" fill="#9EECE0"/>
<path d="M3520.63 653.299C3633.21 608.547 3756.63 515.792 3870.05 480.786C3986.76 444.663 4106.25 452.973 4219.11 498.883C4298.35 531.094 4374.35 581.517 4453.92 611.475C4601.81 666.601 4757.93 649.988 4905.36 563.438L4814.37 1243.7L3141.64 1161.49L3155.89 628.524C3255.97 680.925 3420.8 693.004 3520.63 653.299Z" fill="#9EECE0"/>
<path d="M1774.02 455.94C1650.22 399.571 1522.57 294.322 1396.77 247.559C1267.33 199.338 1130.05 195.029 996.371 228.822C902.524 252.526 810.462 294.689 716.47 316.117C541.839 355.392 365.356 322.432 206.161 220.812L109.631 1013.84L2027.87 1108.12L2146.37 503.627C1982.37 533.41 1883.81 505.948 1774.02 455.94Z" fill="#9EECE0"/>
<path d="M381.092 246.101C262.983 190.012 141.309 85.056 21.2742 38.5765C-102.239 -9.35339 -233.328 -13.3579 -361.07 20.7267C-450.749 44.636 -538.763 86.9981 -628.574 108.632C-795.436 148.288 -963.907 115.722 -1115.72 14.465L-1212.73 947.08L619.008 1037.11L862.883 272.042C670.781 338.192 485.832 295.861 381.092 246.101Z" fill="#9EECE0"/>
<path d="M-1000.93 60.9446C-1124.74 4.57543 -1252.39 -100.674 -1378.18 -147.437C-1507.63 -195.658 -1644.9 -199.967 -1778.58 -166.174C-1872.43 -142.47 -1964.49 -100.307 -2058.48 -78.8785C-2233.11 -39.604 -2409.6 -72.5637 -2568.79 -174.183L-2677.73 871.343L-759.493 965.62L-628.581 108.631C-792.587 138.415 -891.145 110.952 -1000.93 60.9446Z" fill="#9EECE0"/>
<path d="M-1968.92 254.088C-1825.85 217.466 -1671.27 133.097 -1527.47 106.283C-1379.49 78.59 -1229.57 95.5348 -1089.26 149.606C-990.763 187.546 -896.969 243.465 -797.97 279.176C-613.956 344.994 -417.108 339.661 -228.77 263.754L-236.023 949.693L-2336.08 746.604L-2344.72 224.941C-2231.41 291.904 -2095.8 286.584 -1968.92 254.088Z" fill="#DD7351"/>
<path d="M-2366.53 214.566C-2487.93 152.367 -2614.37 40.9771 -2738.23 -11.7205C-2865.66 -66.0487 -3003.02 -76.8852 -3138.57 -49.4916C-3233.73 -30.2795 -3327.97 7.45583 -3423.16 24.3873C-3600.01 55.3079 -3775.3 13.9859 -3930.04 -95.0977L-3930.04 592L-2012.28 777.46L-1947.32 248.234C-2069.28 284.085 -2258.87 269.743 -2366.53 214.566Z" fill="#DD7351"/>
<path d="M-347.071 297.958C-197.472 261.967 -36.0447 178.261 114.362 152.086C269.144 125.05 426.154 142.68 573.269 197.41C676.55 235.812 774.985 292.18 878.776 328.355C1071.7 395.034 1277.73 390.589 1474.54 315.502L1463.66 1114.98L-735.565 902.3L-778.445 285.729C-596.18 341.331 -479.74 329.894 -347.071 297.958Z" fill="#DD7351"/>
<path d="M1271.44 312.61C1414.51 275.988 1569.09 191.618 1712.89 164.805C1860.87 137.111 2010.79 154.056 2151.09 208.127C2249.59 246.067 2343.39 301.987 2442.39 337.698C2626.4 403.516 2823.25 398.182 3011.59 322.276L2980 1259.84L879.941 1056.75L718.727 261.429C927.452 357.466 1144.56 345.106 1271.44 312.61Z" fill="#DD7351"/>
<path d="M2873.77 349.927C3023.37 313.936 3184.8 230.23 3335.2 204.055C3489.98 177.019 3646.99 194.649 3794.11 249.379C3897.39 287.781 3995.82 344.149 4099.62 380.324C4292.54 447.003 4498.57 442.558 4695.38 367.471L4660.17 1418.58L2460.94 1205.9L2442.4 337.699C2624.66 393.3 2741.1 381.863 2873.77 349.927Z" fill="#DD7351"/>
<path d="M1310.5 452.273C1179.46 397.233 1041.96 288.898 909.341 244.48C772.877 198.662 630.541 201.33 493.862 245.51C397.909 276.505 304.743 327.608 208.525 356.119C29.7308 408.502 -154.655 381.919 -324.639 279.253L-317.726 647.001H1672.99L1666.08 460.121C1553.59 521.212 1426.71 501.104 1310.5 452.273Z" fill="#006567"/>
<path d="M1687.51 451.104C1807.17 396.064 1936.03 287.898 2057.14 243.48C2181.75 197.662 2311.74 200.331 2436.55 244.511C2524.17 275.506 2609.25 326.608 2697.12 355.119C2860.39 407.502 3028.77 380.919 3184 278.254V646.501H1366.09L1290.75 443.608C1402.03 495.581 1581.39 499.935 1687.51 451.104Z" fill="#006567"/>
<path d="M-216.643 329.042C-353.87 274.002 -497.872 165.666 -636.75 121.248C-779.657 75.4301 -928.715 78.0989 -1071.85 122.279C-1172.33 153.273 -1269.9 204.376 -1370.66 232.887C-1557.9 285.27 -1750.99 258.687 -1929 156.021V648H155.723L189.593 361.207C13.3685 402.63 -94.9475 377.872 -216.643 329.042Z" fill="#006567"/>
</g>
</svg>
